<svg width="281" height="280" viewBox="0 0 281 280" fill="none" xmlns="http://www.w3.org/2000/svg">
<g id="Group 3">
<path id="Vector" d="M199.147 0.281189H81.5054C36.7559 0.281189 0.479248 36.4412 0.479248 81.047V198.311C0.479248 242.916 36.7559 279.077 81.5054 279.077H199.147C243.897 279.077 280.173 242.916 280.173 198.311V81.047C280.173 36.4412 243.897 0.281189 199.147 0.281189Z" fill="#91C896"/>
<path id="Vector_2" d="M192.771 100.802C192.894 108.952 190.791 116.982 186.686 124.031C172.619 147.558 140.371 148.454 134.221 148.454C125.527 148.454 116.314 147.178 110.942 145.393C104.039 145.393 99.4366 149.431 99.4366 154.277C99.4366 160.399 104.039 162.693 113.211 162.693H154.137C178.948 162.693 195.833 175.696 195.833 200.168C195.833 226.433 175.374 243.257 142.883 243.257H91.2448C66.937 243.257 53.6487 231.53 53.6487 213.681C53.6487 199.409 63.3718 187.932 79.9903 184.871L80.2496 183.345C72.3171 179.775 66.9451 171.101 66.9451 161.159C66.9451 146.37 78.9694 135.919 93.2948 133.625L93.8052 131.073C85.1111 124.701 80.5008 112.974 80.5008 100.988C80.4521 94.4567 81.9016 88.0007 84.7384 82.1131C88.6763 74.1657 108.682 54.265 137.292 54.8385C157.97 55.2504 179.571 66.2345 188.16 83.2438C190.847 88.7349 192.414 94.703 192.771 100.802ZM98.4075 195.387C92.2738 196.922 88.9437 201.259 88.9437 206.355C88.9437 212.727 94.3157 216.297 101.989 216.297H138.054C148.547 216.297 153.149 211.451 153.149 204.821C153.149 198.707 148.798 195.387 142.154 195.387H98.4075ZM157.5 100.802C157.5 90.3431 150.078 82.953 138.054 82.953C125.778 82.953 116.825 91.1104 116.825 102.579C116.825 113.079 124.498 120.178 136.012 120.178C148.798 120.186 157.5 112.013 157.5 100.802Z" fill="white"/>
<path id="Vector_3" d="M228.916 53.8854C228.916 43.4343 221.502 36.0362 209.47 36.0362C197.186 36.0362 188.241 44.1935 188.241 55.6704C188.241 66.1215 195.914 73.2611 207.42 73.2611C220.214 73.2611 228.916 65.1038 228.916 53.8854Z" fill="white"/>
</g>
</svg>
