<svg width="217" height="258" viewBox="0 0 217 258" fill="none" xmlns="http://www.w3.org/2000/svg">
  <path d="M172 81C172.153 91.0905 169.557 101.032 164.49 109.76C147.13 138.89 107.33 140 99.7401 140C89.0101 140 77.64 138.42 71.01 136.21C62.49 136.21 56.81 141.21 56.81 147.21C56.81 154.79 62.49 157.63 73.81 157.63H124.32C154.94 157.63 175.78 173.73 175.78 204.03C175.78 236.55 150.53 257.38 110.43 257.38H46.7C16.7 257.38 0.300049 242.86 0.300049 220.76C0.300049 203.09 12.3 188.88 32.81 185.09L33.1301 183.2C23.34 178.78 16.71 168.04 16.71 155.73C16.71 137.42 31.55 124.48 49.23 121.64L49.86 118.48C39.13 110.59 33.44 96.07 33.44 81.23C33.38 73.1432 35.1689 65.1497 38.67 57.86C43.53 48.02 68.22 23.38 103.53 24.09C129.05 24.6 155.71 38.2 166.31 59.26C169.626 66.0588 171.56 73.4482 172 81ZM55.54 198.11C47.97 200.01 43.86 205.38 43.86 211.69C43.86 219.58 50.4901 224 59.9601 224H104.47C117.42 224 123.1 218 123.1 209.79C123.1 202.22 117.73 198.11 109.53 198.11H55.54ZM128.47 81C128.47 68.05 119.31 58.9 104.47 58.9C89.32 58.9 78.2701 69 78.2701 83.2C78.2701 96.2 87.74 104.99 101.95 104.99C117.73 105 128.47 94.88 128.47 81Z" fill="#7baa80"/>
  <path d="M216.61 22.91C216.61 9.97 207.46 0.809998 192.61 0.809998C177.45 0.809998 166.41 10.91 166.41 25.12C166.41 38.06 175.88 46.9 190.08 46.9C205.87 46.9 216.61 36.8 216.61 22.91Z" fill="#7baa80"/>
</svg>
