<svg width="1161" height="508" viewBox="0 0 1161 508" fill="none" xmlns="http://www.w3.org/2000/svg">
  <path d="M114.24 8.11C167.96 8.11 208.04 36.28 213.24 78.67L160.68 81.86C154.88 64.15 136.29 53.41 113.07 53.41C77.3501 53.41 52.67 79.83 52.67 118.16C52.67 153.58 73.58 172.16 104.67 172.16C129.93 172.16 147.94 159.96 154.33 141.38H99.15L104.95 106.82H213.26L197.26 211.07H159L162.45 189H158.38C147.06 205 122.96 214.84 93.92 214.84C38.75 214.84 0.420044 178.84 0.420044 120.18C0.420044 54.57 48.33 8.11 114.24 8.11Z" fill="#7baa80"/>
  <path d="M232.41 211.08L255.64 64.44H300.94L297.16 88H300.35C309.35 72 321.55 63 338.68 62.45C343.638 62.4772 348.588 62.8649 353.49 63.61L349.13 107.46C344.2 106 337.81 105.71 333.13 105.71C312.51 105.71 300.31 113.26 292.18 128.65L279.12 211.12L232.41 211.08Z" fill="#7baa80"/>
  <path d="M438.27 60.67C480.95 60.67 510.86 88.25 510.86 127.16C510.86 135.29 509.7 142.84 507.38 148.94H402.85C401.11 167.52 412.72 179.72 432.17 179.72C445.53 179.72 455.98 173.62 459.17 163.72H507.08C501.85 194.5 472.23 215.11 433.33 215.11C387.16 215.11 356.96 185.78 356.96 141.65C357 94.06 390.36 60.67 438.27 60.67ZM463.27 120.77C462.4 105.09 452.53 95.51 436.27 95.51C420.88 95.51 409.55 105.38 406.94 120.77H463.27Z" fill="#7baa80"/>
  <path d="M611.9 60.67C654.58 60.67 684.49 88.25 684.49 127.16C684.49 135.29 683.33 142.84 681 148.94H576.47C574.73 167.52 586.34 179.72 605.8 179.72C619.16 179.72 629.61 173.62 632.8 163.72H680.71C675.49 194.5 645.87 215.11 606.96 215.11C560.79 215.11 530.59 185.78 530.59 141.65C530.59 94.06 564 60.67 611.9 60.67ZM636.9 120.77C636.03 105.09 626.15 95.51 609.9 95.51C594.52 95.51 583.19 105.38 580.58 120.77H636.9Z" fill="#7baa80"/>
  <path d="M699.58 211.08L722.81 64.44H766.94L764 82.73H769.23C777.94 67.64 794.23 60.09 811.04 60.09C843.85 60.09 861.56 85.09 855.75 122.81L841.82 211.08H795.11L808.17 126.29C811.08 108.58 803.24 100.16 789.59 100.16C777.39 100.16 766.94 108 760.59 119.9L746.36 211.08H699.58Z" fill="#7baa80"/>
  <path d="M0.420044 444.09L31.78 245.19H132.54C172.32 245.19 192.06 264.65 192.06 292.52C192.06 317.2 178.71 337.24 155.19 343.92L154.9 347.11C172.61 353.21 182.19 367.73 182.19 385.73C182.19 422.03 155.48 444.09 115.7 444.09H0.420044ZM55.88 405.48H105.25C122.09 405.48 133.12 396.48 133.12 381.67C133.12 369.47 124.7 361.34 111.92 361.34H62.85L55.88 405.48ZM68.08 328.24H111.92C128.47 328.24 139.8 318.66 139.8 303.56C139.8 291.07 131.67 283.56 118.6 283.56H75.05L68.08 328.24Z" fill="#7baa80"/>
  <path d="M361.33 297.46L338.11 444.09H294L296.9 425.8H291.68C283.55 440.03 267.58 448.45 250.16 448.45C219.67 448.45 201.66 425.51 207.47 387.76L221.7 297.46H268.45L255.67 380.46C252.77 399.05 260.03 406.6 272.51 406.6C284.71 406.6 294.58 397.89 300.68 385.4L314.62 297.4L361.33 297.46Z" fill="#7baa80"/>
  <path d="M396.75 297.46H443.5L420.27 444.09H373.52L396.75 297.46Z" fill="#7baa80"/>
  <path d="M455.1 444.09L488.21 234.45H535L501.85 444.09H455.1Z" fill="#7baa80"/>
  <path d="M675.19 234.45H721.94L688.84 444.09H645L648.19 424.93H644.13C636.29 439.16 618.28 448.45 597.67 448.45C562.53 448.45 539.3 420.87 539.3 380.21C539.3 330.56 570.37 293.68 613.93 293.68C634.54 293.68 652.55 303.27 658.64 317.5H662.42L675.19 234.45ZM656 355.82C653.71 341.3 641.8 332 626.7 332C602.89 332 588.08 350.3 588.08 377C588.08 397 600.86 410.39 617.7 410.39C633.38 410.39 646.45 402.26 650.8 390.39L656 355.82Z" fill="#7baa80"/>
  <path d="M746.9 297.46H793.65L770.42 444.09H723.67L746.9 297.46Z" fill="#7baa80"/>
  <path d="M805.25 444.09L828.48 297.46H872.62L869.72 315.75H874.94C883.65 300.65 899.94 293.11 916.75 293.11C949.57 293.11 967.28 318.11 961.47 355.82L947.53 444.09H900.78L913.85 359.31C916.75 341.6 908.91 333.18 895.27 333.18C883.07 333.18 872.62 341.02 866.27 352.92L852 444.09H805.25Z" fill="#7baa80"/>
  <path d="M1119.13 345.66C1119.27 354.944 1116.88 364.091 1112.22 372.12C1096.22 398.91 1059.62 399.96 1052.63 399.96C1042.76 399.96 1032.31 398.51 1026.21 396.47C1018.37 396.47 1013.15 401.12 1013.15 406.64C1013.15 413.64 1018.37 416.22 1028.83 416.22H1075.28C1103.45 416.22 1122.61 431.03 1122.61 458.9C1122.61 488.81 1099.38 507.98 1062.51 507.98H1003.85C976.27 507.98 961.17 494.62 961.17 474.29C961.17 458.03 972.17 444.97 991.08 441.48L991.37 439.74C982.37 435.67 976.27 425.8 976.27 414.48C976.27 397.64 989.92 385.73 1006.18 383.12L1006.76 380.21C996.88 372.96 991.66 359.6 991.66 345.95C991.602 338.515 993.244 331.164 996.46 324.46C1000.93 315.4 1023.64 292.74 1056.12 293.39C1079.59 293.87 1104.12 306.39 1113.87 325.74C1116.92 331.969 1118.7 338.739 1119.13 345.66ZM1012 453.39C1005 455.13 1001.26 460.07 1001.26 465.87C1001.26 473.13 1007.36 477.2 1016.07 477.2H1057C1068.91 477.2 1074.13 471.68 1074.13 464.13C1074.13 457.13 1069.19 453.39 1061.65 453.39H1012ZM1079.08 345.66C1079.08 333.76 1070.66 325.34 1057.01 325.34C1043.07 325.34 1032.91 334.63 1032.91 347.69C1032.91 359.6 1041.62 367.69 1054.69 367.69C1069.18 367.73 1079.06 358.44 1079.06 345.66H1079.08Z" fill="#7baa80"/>
  <path d="M1160.13 292.23C1160.13 280.33 1151.71 271.91 1138.06 271.91C1124.13 271.91 1113.96 281.2 1113.96 294.27C1113.96 306.17 1122.67 314.27 1135.74 314.27C1150.26 314.3 1160.13 305 1160.13 292.23Z" fill="#7baa80"/>
  <path d="M799.74 255.5C799.74 243.6 791.33 235.18 777.68 235.18C763.74 235.18 753.58 244.47 753.58 257.53C753.58 269.44 762.29 277.53 775.35 277.53C789.87 277.57 799.74 268.28 799.74 255.5Z" fill="#7baa80"/>
  <path d="M449.59 255.5C449.59 243.6 441.18 235.18 427.53 235.18C413.59 235.18 403.43 244.47 403.43 257.53C403.43 269.44 412.14 277.53 425.2 277.53C439.72 277.57 449.59 268.28 449.59 255.5Z" fill="#7baa80"/>
  <path d="M959.57 211.08L982.86 60.64H1029.61L1006.32 211.08H959.57Z" fill="#FFD405"/>
  <path d="M1041.68 211.08L1074.78 0.879997H1121.53L1088.42 211.08H1041.68Z" fill="#90d1dc"/>
  <path d="M877.29 211.08L891.93 120.7H938.68L924 211.08H877.29Z" fill="#EF797A"/>
</svg>
